<?xml version="1.0" encoding="UTF-8" standalone="no"?>
<svg
   xmlns:dc="http://purl.org/dc/elements/1.1/"
   xmlns:cc="http://creativecommons.org/ns#"
   xmlns:rdf="http://www.w3.org/1999/02/22-rdf-syntax-ns#"
   xmlns:svg="http://www.w3.org/2000/svg"
   xmlns="http://www.w3.org/2000/svg"
   height="89.105469"
   width="85.259766"
   id="svg2065"
   y="0px"
   x="0px"
   version="1.1"
   viewBox="0 0 85.259766 89.105469">
  <metadata
     id="metadata2071">
    <rdf:RDF>
      <cc:Work
         rdf:about="">
        <dc:format>image/svg+xml</dc:format>
        <dc:type
           rdf:resource="http://purl.org/dc/dcmitype/StillImage" />
        <dc:title></dc:title>
      </cc:Work>
    </rdf:RDF>
  </metadata>
  <defs
     id="defs2069" />
  <path
     style="opacity:1;fill:#000000;fill-opacity:1;stroke:none"
     d="m 34.330079,0 -8.294922,14.363281 8.294922,14.363281 H 50.91211 L 59.207032,14.363281 50.91211,0 Z m 0.943359,1.6347656 H 49.96875 L 57.31836,14.363281 49.96875,27.089844 H 35.273438 L 27.923829,14.363281 Z M 60.382813,15.46289 52.087891,29.828125 60.382813,44.191406 H 76.964844 L 85.259766,29.828125 76.964844,15.46289 Z M 8.2929686,15.77539 0,30.138672 8.2929686,44.503906 H 24.876954 L 33.171876,30.138672 24.876954,15.77539 Z m 53.0312504,1.324219 h 14.697266 l 7.349609,12.728516 -7.349609,12.726562 H 61.324219 L 53.976563,29.828125 Z m -52.0878904,0.3125 H 23.933594 l 7.34961,12.726563 -7.34961,12.728515 H 9.2363286 L 1.8886719,30.138672 Z M 34.181641,30.435547 25.888672,44.798828 34.181641,59.162109 H 50.765626 L 59.058594,44.798828 50.765626,30.435547 Z M 35.125,32.070312 h 14.697266 l 7.347656,12.728516 -7.347656,12.728516 H 35.125 L 27.777344,44.798828 Z M 60.382813,45.40625 52.087891,59.769531 60.382813,74.134766 H 76.964844 L 85.259766,59.769531 76.964844,45.40625 Z M 8.2929686,45.71875 0,60.082031 8.2929686,74.445312 H 24.876954 L 33.171876,60.082031 24.876954,45.71875 Z m 53.0312504,1.324219 h 14.697266 l 7.349609,12.726562 -7.349609,12.728516 H 61.324219 L 53.976563,59.769531 Z M 9.2363286,47.353516 H 23.933594 l 7.34961,12.728515 -7.34961,12.728516 H 9.2363286 L 1.8886719,60.082031 Z M 34.181641,60.376953 25.888672,74.742187 34.181641,89.105469 H 50.765626 L 59.058594,74.742187 50.765626,60.376953 Z M 35.125,62.013672 H 49.822266 L 57.169922,74.742187 49.822266,87.46875 H 35.125 L 27.777344,74.742187 Z"
     id="path2057" />
</svg>
