<?xml version="1.0" encoding="UTF-8" standalone="no"?>
<!-- Created with Inkscape (http://www.inkscape.org/) -->

<svg
    xmlns:dc="http://purl.org/dc/elements/1.1/"
    xmlns:cc="http://creativecommons.org/ns#"
    xmlns:rdf="http://www.w3.org/1999/02/22-rdf-syntax-ns#"
    xmlns:svg="http://www.w3.org/2000/svg"
    xmlns="http://www.w3.org/2000/svg"
    xmlns:xlink="http://www.w3.org/1999/xlink"
    xmlns:sodipodi="http://sodipodi.sourceforge.net/DTD/sodipodi-0.dtd"
    xmlns:inkscape="http://www.inkscape.org/namespaces/inkscape"
    id="svg2"
    version="1.1"
    inkscape:version="0.48.4 r9939"
    preserveAspectRatio="xMinYMin meet"
    width="3000"
    height="1990.87"
    sodipodi:docname="sprites.svg"
    viewBox="0 0 3000 1990.0086"
    zoomAndPan="magnify">
    <metadata
        id="metadata8">
        <rdf:RDF>
            <cc:Work
                rdf:about="">
                <dc:format>image/svg+xml</dc:format>
                <dc:type
                    rdf:resource="http://purl.org/dc/dcmitype/StillImage" />
                <dc:title />
            </cc:Work>
        </rdf:RDF>
    </metadata>
    <defs
        id="defs6">
        <marker
            inkscape:stockid="Arrow2Send"
            orient="auto"
            refY="0.0"
            refX="0.0"
            id="Arrow2Send"
            style="overflow:visible;">
            <path
                id="path5687"
                style="fill-rule:evenodd;stroke-width:0.62500000;stroke-linejoin:round;"
                d="M 8.7185878,4.0337352 L -2.2072895,0.016013256 L 8.7185884,-4.0017078 C 6.9730900,-1.6296469 6.9831476,1.6157441 8.7185878,4.0337352 z "
                transform="scale(0.3) rotate(180) translate(-2.3,0)" />
        </marker>
        <marker
            style="overflow:visible"
            id="TriangleOutSJ"
            refX="0"
            refY="0"
            orient="auto"
            inkscape:stockid="TriangleOutSJ">
            <path
                inkscape:connector-curvature="0"
                style="fill:#ff0f0f;fill-rule:evenodd;stroke:#ff0f0f;stroke-width:1pt;marker-start:none"
                d="m 5.77,0 -8.65,5 0,-10 8.65,5 z"
                id="path5934"
                transform="scale(0.2,0.2)" />
        </marker>
        <style
            type="text/css"
            id="style2990"> .h {fill:#fffff;fill-opacity:0;stroke:#000000;stroke-opacity:0.1;pointer-events:all}
        </style>
        <style
            type="text/css"
            id="dyncss" />
        <filter
            id="filter3706"
            inkscape:label="Apparition"
            x="0"
            y="0"
            width="1"
            height="1"
            inkscape:menu="Blurs"
            inkscape:menu-tooltip="Edges are partly feathered out"
            color-interpolation-filters="sRGB">
            <feMorphology
                id="feMorphology3708"
                radius="4"
                in="SourceGraphic"
                result="result0" />
            <feGaussianBlur
                id="feGaussianBlur3710"
                in="result0"
                stdDeviation="8"
                result="result91" />
            <feComposite
                id="feComposite3712"
                in2="result91"
                operator="in"
                in="SourceGraphic" />
        </filter>
        <filter
            id="filter3690"
            inkscape:label="Apparition"
            x="0"
            y="0"
            width="1"
            height="1"
            inkscape:menu="Blurs"
            inkscape:menu-tooltip="Edges are partly feathered out"
            color-interpolation-filters="sRGB">
            <feMorphology
                id="feMorphology3692"
                radius="4"
                in="SourceGraphic"
                result="result0" />
            <feGaussianBlur
                id="feGaussianBlur3694"
                in="result0"
                stdDeviation="8"
                result="result91" />
            <feComposite
                id="feComposite3696"
                in2="result91"
                operator="in"
                in="SourceGraphic" />
        </filter>
        <filter
            id="filter3690-0"
            inkscape:label="Apparition"
            x="0"
            y="0"
            width="1"
            height="1"
            inkscape:menu="Blurs"
            inkscape:menu-tooltip="Edges are partly feathered out"
            color-interpolation-filters="sRGB">
            <feMorphology
                id="feMorphology3692-0"
                radius="4"
                in="SourceGraphic"
                result="result0" />
            <feGaussianBlur
                id="feGaussianBlur3694-4"
                in="result0"
                stdDeviation="8"
                result="result91" />
            <feComposite
                id="feComposite3696-3"
                in2="result91"
                operator="in"
                in="SourceGraphic" />
        </filter>
        <filter
            id="filter3706-1"
            inkscape:label="Apparition"
            x="0"
            y="0"
            width="1"
            height="1"
            inkscape:menu="Blurs"
            inkscape:menu-tooltip="Edges are partly feathered out"
            color-interpolation-filters="sRGB">
            <feMorphology
                id="feMorphology3708-4"
                radius="4"
                in="SourceGraphic"
                result="result0" />
            <feGaussianBlur
                id="feGaussianBlur3710-9"
                in="result0"
                stdDeviation="8"
                result="result91" />
            <feComposite
                id="feComposite3712-1"
                in2="result91"
                operator="in"
                in="SourceGraphic" />
        </filter>
        <filter
            id="grayscale"
            inkscape:label="Invert"
            x="0"
            y="0"
            width="1"
            height="1"
            inkscape:menu="Color"
            inkscape:menu-tooltip="Invert colors"
            color-interpolation-filters="sRGB">
            <feColorMatrix
                id="feColorMatrix5702"
                values="0.3333 0.3333 0.3333 0 0 0.3333 0.3333 0.3333 0 0 0.3333 0.3333 0.3333 0 0 0 0 0 1 0" />
        </filter>
        <filter
            id="select"
            inkscape:menu-tooltip="Draws a black outline around"
            inkscape:menu="ABCs"
            inkscape:label="select"
            color-interpolation-filters="sRGB">
            <feGaussianBlur
                id="feGaussianBlur3025"
                stdDeviation="2"
                in="SourceAlpha"
                result="result0" />
            <feComposite
                id="feComposite3027"
                in2="result0"
                result="result3"
                operator="arithmetic"
                in="SourceGraphic"
                k2="1"
                k3="10" />
            <feComposite
                id="feComposite3029"
                in2="result3"
                k2="1"
                operator="in"
                in="result3"
                result="result4" />
        </filter>
        <filter id="mark">
            <feColorMatrix type="matrix" values="0.3333 0.3333 0.3333 0 0 0.3333 0.3333 0.3333 0 0 0.3333 0.3333 0.3333 0 0 0 0 0 1 0"/>
        </filter>  
    </defs>
    <sodipodi:namedview
        pagecolor="#ffffff"
        bordercolor="#666666"
        borderopacity="1"
        objecttolerance="10000"
        gridtolerance="10000"
        guidetolerance="10000"
        inkscape:pageopacity="0"
        inkscape:pageshadow="2"
        inkscape:window-width="1280"
        inkscape:window-height="975"
        id="namedview4"
        showgrid="false"
        inkscape:zoom="1.9070917"
        inkscape:cx="108.22717"
        inkscape:cy="1942.4759"
        inkscape:window-x="0"
        inkscape:window-y="25"
        inkscape:window-maximized="1"
        inkscape:current-layer="tmpl"
        showguides="true"
        inkscape:guide-bbox="true"
        inkscape:snap-bbox="true"
        inkscape:bbox-paths="true"
        inkscape:bbox-nodes="true"
        inkscape:snap-bbox-edge-midpoints="true"
        inkscape:snap-bbox-midpoints="true"
        fit-margin-top="0"
        fit-margin-left="0"
        fit-margin-right="0"
        fit-margin-bottom="0"
        inkscape:object-paths="true"
        inkscape:object-nodes="false"
        inkscape:snap-global="false" />
    <g
        inkscape:groupmode="layer"
        id="tmpl"
        inkscape:label="tmpl"
        style="display:inline">
        <rect
            inkscape:label="#rect15007"
            style="fill:none;stroke:#f20000;stroke-width:6;stroke-linejoin:miter;stroke-miterlimit:4;stroke-opacity:0.74429226;stroke-dasharray:none;stroke-dashoffset:0;display:inline"
            id="selection"
            width="40"
            height="40"
            x="168.92456"
            y="26.073933"
            ry="2.5394881" />
        <image
            sodipodi:absref="/home/rzymek/devel/github/mboards/public/img/loading.gif"
            xlink:href="img/loading.gif"
            style="display:inline;filter:url(#select)"
            y="-86.663177"
            x="-27.65992"
            id="counter"
            height="40"
            width="40"
            class="c" />
        <path
            style="opacity:0.72972969;fill:none;stroke:#ff0f0f;stroke-width:13.60000038;stroke-linecap:square;stroke-linejoin:miter;stroke-miterlimit:4;stroke-opacity:1;stroke-dasharray:none;stroke-dashoffset:0;marker-end:url(#TriangleOutSJ);display:inline"
            d="M 59.434886,-35.288766 98.177005,-76.021414"
            id="attackArrow"
            inkscape:connector-curvature="0"
            sodipodi:nodetypes="cc" />
        <g
            style="display:inline"
            id="target">
            <path
                transform="matrix(1.038961,0,0,1.038961,-361.10721,-772.0951)"
                d="m 366.5,742.13348 a 19.25,19.25 0 1 1 -38.5,0 19.25,19.25 0 1 1 38.5,0 z"
                sodipodi:ry="19.25"
                sodipodi:rx="19.25"
                sodipodi:cy="742.13348"
                sodipodi:cx="347.25"
                id="path4099"
                style="opacity:0.56790125;fill:#ff0000;fill-opacity:1;fill-rule:nonzero;stroke:none"
                sodipodi:type="arc" />
            <text
                sodipodi:linespacing="100%"
                id="odds-txt"
                y="5.6312742"
                x="-0.12246795"
                style="font-size:17.12854767px;font-style:normal;font-variant:normal;font-weight:bold;font-stretch:normal;text-align:center;line-height:100%;writing-mode:lr-tb;text-anchor:middle;opacity:0.56790125;fill:#ffffff;fill-opacity:1;fill-rule:nonzero;stroke:none;font-family:Sans;-inkscape-font-specification:Sans Bold"
                xml:space="preserve"><tspan
                style="font-style:normal;font-variant:normal;font-weight:bold;font-stretch:normal;font-family:Sans;-inkscape-font-specification:Sans Bold"
                y="5.6312742"
                x="-0.12246727"
                id="odds"
                sodipodi:role="line">1:1</tspan></text>
        </g>
        <g
            id="boom"
            style="opacity:0.80658438;display:inline">
            <g
                transform="matrix(0.05014963,0,0,0.06286045,-68.043011,-155.91614)"
                id="g7041"
                style="display:inline">
                <path
                    inkscape:connector-curvature="0"
                    style="fill:#f56d3c;fill-opacity:1;stroke:#ff2626;stroke-width:5;stroke-linecap:butt;stroke-linejoin:miter;stroke-miterlimit:4;stroke-opacity:1;stroke-dasharray:none;display:inline"
                    d="m 1151.5249,2261.3913 c 46.3005,31.6244 106.736,88.193 61.2162,-42.2181 54.0371,92.8477 83.8088,109.5903 75.9926,8.4436 26.055,72.3156 50.6411,55.0348 73.8817,-44.329 13.5784,194.295 38.8413,128.6097 63.3271,80.2144 3.8604,14.0438 -5.2991,62.1395 14.7764,33.7744 61.8766,45.5024 115.8316,-30.1798 156.2069,-75.9925 -63.2105,112.8665 34.4942,74.5702 103.9621,62.7994 -91.4118,71.71 25.4862,34.8505 48.0231,23.7477 -29.0548,25.1149 -65.9269,53.8073 -14.7763,42.2181 -57.1047,53.4761 -64.2993,97.7455 23.2199,124.5434 -30.8678,15.0656 -40.9524,46.286 4.2218,46.4399 -28.3937,2.2971 -38.0432,17.2742 0,23.2199 -129.6318,24.6895 -50.1707,62.4722 -12.6654,92.8798 -188.3794,-52.1702 -83.2112,58.6211 -14.7763,109.7671 -121.1761,-72.1621 -256.6911,-129.3287 -143.5416,2.1109 -28.809,-15.7254 -68.6904,-48.7512 -54.8835,2.1109 -44.9456,-59.8367 -55.4492,-48.7635 -52.7726,-10.5545 -43.8024,-48.3947 -67.3004,-26.6468 -80.2144,31.6636 -21.5512,-12.7464 -26.0509,-76.6471 -86.5471,27.4417 7.8133,-47.6054 -13.5356,-51.4673 -50.6617,-31.6636 0.4554,-58.5038 -46.6966,9.3319 -61.2163,23.22 6.9535,-77.6893 -28.0147,-47.5801 -59.1053,-27.4418 25.6986,-86.2446 -73.2823,-36.4753 -132.987,-29.5526 57.3393,-35.5085 110.3787,-70.3329 46.4399,-86.5471 78.3712,-55.2879 -22.759,-47.9589 -52.7726,-65.4381 29.0857,-12.9316 88.7922,-16.3603 42.2181,-52.7726 52.1974,-38.3569 -35.8263,-55.4682 -66.49356,-81.2699 58.54246,-5.3782 131.45126,-6.458 65.43806,-44.329 27.4998,1.4363 49.3499,4.7973 15.8318,-24.2754 46.9936,22.4321 21.3059,-40.4573 6.3327,-90.7689 60.4026,56.9106 141.8691,91.4748 82.3253,-27.4417 z"
                    id="path2891"
                    sodipodi:nodetypes="cccccccccccccccccccccccccccccccc" />
                <path
                    inkscape:connector-curvature="0"
                    sodipodi:nodetypes="cccccccccccccccccccccccccccccccc"
                    id="path2916"
                    d="m 314.52484,144.59747 c 46.30047,31.62446 106.73597,88.19309 61.21624,-42.2181 54.0371,92.84774 83.8088,109.59039 75.99258,8.44362 26.05496,72.31563 50.64113,55.03481 73.88168,-44.329002 13.5784,194.295002 38.84131,128.609752 63.32715,80.214392 3.86034,14.04381 -5.29917,62.13955 14.77633,33.77448 61.87667,45.5024 115.83162,-30.17982 156.20697,-75.99258 -63.21058,112.86655 34.49412,74.57027 103.96207,62.79942 -91.41183,71.71005 25.4862,34.8505 48.02309,23.74768 -29.05483,25.11496 -65.92694,53.80732 -14.77634,42.2181 -57.10466,53.4761 -64.29927,97.74549 23.21996,124.54339 -30.86782,15.06567 -40.95238,46.28601 4.22181,46.43991 -28.39369,2.29712 -38.04319,17.27423 0,23.21996 -129.6318,24.68944 -50.17073,62.47216 -12.66543,92.87982 -188.37938,-52.17025 -83.21118,58.62101 -14.77634,109.76705 -121.17611,-72.16207 -256.69102,-129.32874 -143.54154,2.11091 -28.80907,-15.72536 -68.69045,-48.75121 -54.88353,2.1109 -44.9456,-59.83672 -55.44924,-48.76354 -52.77262,-10.55452 -43.80236,-48.39464 -67.30033,-26.64682 -80.21439,31.66357 -21.55116,-12.74636 -26.05086,-76.6471 -86.5471,27.44177 7.81333,-47.60538 -13.53563,-51.46732 -50.66172,-31.66358 0.45541,-58.50388 -46.6966,9.33182 -61.21625,23.21996 6.95348,-77.68934 -28.01473,-47.58006 -59.10533,-27.44177 25.69859,-86.24463 -73.28225,-36.47534 -132.98702,-29.55267 57.33937,-35.50848 110.37876,-70.33288 46.43991,-86.5471 78.37119,-55.28782 -22.75902,-47.95887 -52.77262,-65.43805 29.08578,-12.93164 88.79223,-16.36032 42.2181,-52.77263 52.19742,-38.35691 -35.82622,-55.4682 -66.49351,-81.26984 58.54243,-5.37822 131.45121,-6.45802 65.43806,-44.329 27.49983,1.4363 49.3499,4.79726 15.83178,-24.27541 46.99357,22.43204 21.3059,-40.45738 6.33272,-90.76891 60.40258,56.91058 141.86907,91.47474 82.32529,-27.44177 z"
                    style="fill:#fffe48;fill-opacity:1;stroke:none;display:inline;filter:url(#filter3690-0)"
                    transform="matrix(0.83641922,0,0,0.83501345,925.9408,2177.8656)" />
                <path
                    inkscape:connector-curvature="0"
                    sodipodi:nodetypes="ccccccccccccccc"
                    id="path3704"
                    d="m 406.18389,240.43283 c 67.9126,125.64147 94.99166,82.42801 80.05929,-19.7069 20.81325,98.13552 45.22573,188.42409 43.10886,-25.86531 7.34232,175.74905 77.26091,151.06905 136.71664,22.17026 -83.99765,108.34241 -8.85049,106.15063 88.68107,50.49894 -84.06531,46.89101 -114.82894,96.25386 4.92673,97.30284 -168.65462,7.26846 -40.47144,34.87336 2.46336,40.64549 -25.44066,39.2365 -188.71681,-33.5632 -131.78992,120.70478 -51.99647,-155.28966 -73.03712,-80.54559 -77.59593,12.31682 -14.21743,-88.06018 -26.05571,-125.5868 -80.0593,-2.46336 6.39245,-158.94748 -27.32168,-77.33411 -70.20584,-2.46337 37.61485,-103.91564 -84.08389,-92.28533 -84.08389,-92.28533 24.70704,-17.23681 56.49734,-85.9045 -11.37143,-91.85105 98.19424,44.52554 101.97454,2.06461 51.11478,-92.99195 62.42968,95.68277 118.6446,135.79928 48.03558,-16.01186 z"
                    style="fill:#faffac;fill-opacity:1;stroke:#ff2626;stroke-width:1.03373742;stroke-miterlimit:4;stroke-opacity:1;stroke-dasharray:none;display:inline;filter:url(#filter3706-1)"
                    transform="matrix(1.0688748,0,0,0.87549303,839.73535,2155.9816)" />
            </g>
            <text
                transform="scale(0.67037019,1.4917131)"
                sodipodi:linespacing="100%"
                id="text7046"
                y="6.6151958"
                x="2.3213608"
                style="font-size:15.50794411px;font-style:normal;font-variant:normal;font-weight:bold;font-stretch:normal;text-align:center;line-height:100%;writing-mode:lr-tb;text-anchor:middle;fill:#000000;fill-opacity:1;fill-rule:nonzero;stroke:none;display:inline;font-family:Sans;-inkscape-font-specification:Sans Bold"
                xml:space="preserve"><tspan
                y="6.6151958"
                x="2.3213615"
                id="result-text"
                sodipodi:role="line">D1r3</tspan></text>
        </g>
        <path
            style="fill:none;stroke:#1506ff;stroke-width:8;stroke-linecap:butt;stroke-linejoin:round;stroke-miterlimit:4;stroke-opacity:0.51141555;stroke-dasharray:none;stroke-dashoffset:0;marker-end:url(#Arrow2Send)"
            d="m 148.67082,-89.109646 165.40405,45.97641"
            id="trace"
            inkscape:connector-curvature="0"
            sodipodi:nodetypes="cc" />
        <rect
            style="fill:#dddddd;fill-opacity:1;fill-rule:nonzero;stroke:#000000;stroke-width:3;stroke-miterlimit:4;stroke-opacity:0.67579908;stroke-dasharray:none"
            id="stackSelector"
            width="57.219021"
            height="52.768597"
            x="131.99683"
            y="-60.271507"
            ry="7.0260873" />
        <rect
            style="opacity:0.72307691;fill:#d147cc;fill-opacity:1;fill-rule:nonzero;stroke:none"
            id="used"
            width="40"
            height="15"
            x="-20.370777"
            y="-7.5093231" />
        <g
            id="menuItem">
            <rect
                id="rect3820"
                style="fill:#bfbbff;fill-opacity:1;fill-rule:nonzero;stroke:#000052;stroke-width:3;stroke-miterlimit:4;stroke-opacity:0.67579908;stroke-dasharray:none"
                width="100"
                height="45"
                x="1.5"
                y="1.5"
                ry="7.0260873" />
            <text
                sodipodi:linespacing="100%"
                id="text3809"
                y="30.222656"
                x="51.066406"
                style="font-size:24px;font-style:normal;font-variant:normal;font-weight:bold;font-stretch:normal;text-align:center;line-height:100%;writing-mode:lr-tb;text-anchor:middle;fill:#000000;fill-opacity:1;fill-rule:nonzero;stroke:none;font-family:Arial;-inkscape-font-specification:Arial Bold"
                xml:space="preserve"><tspan
                y="30.222656"
                x="51.066406"
                id="tspan3811"
                sodipodi:role="line">${text}</tspan></text>
        </g>
    </g>
</svg>
